<svg width="18" height="18" viewBox="0 0 18 18" fill="none" xmlns="http://www.w3.org/2000/svg">
<g clip-path="url(#clip0)">
<path d="M15.0233 9.74671C14.9801 9.72491 14.9368 9.71403 14.8932 9.71403C14.7992 9.71403 14.7165 9.75008 14.6444 9.82234L13.9516 10.515C13.8869 10.58 13.8543 10.6593 13.8543 10.7532V13.5022C13.8543 13.9786 13.6851 14.3861 13.3458 14.7254C13.0066 15.0645 12.5989 15.234 12.1226 15.234H3.11724C2.64093 15.234 2.2332 15.0645 1.89409 14.7254C1.5549 14.3861 1.38541 13.9786 1.38541 13.5022V4.49703C1.38541 4.0208 1.5549 3.61311 1.89409 3.27388C2.2332 2.93474 2.64093 2.7652 3.11724 2.7652H12.1227C12.2814 2.7652 12.4438 2.78685 12.6097 2.83018C12.653 2.84451 12.6855 2.85183 12.7069 2.85183C12.8008 2.85183 12.8838 2.81585 12.956 2.7437L13.4863 2.21334C13.5728 2.12686 13.6054 2.02215 13.5836 1.89959C13.562 1.78411 13.4969 1.70109 13.3887 1.65063C12.9993 1.47048 12.577 1.37998 12.1224 1.37998H3.11724C2.25856 1.37998 1.52431 1.68486 0.914556 2.29462C0.304877 2.90445 0 3.63858 0 4.4973V13.5027C0 14.3613 0.304877 15.0955 0.914594 15.7052C1.52435 16.3151 2.2586 16.62 3.11728 16.62H12.1226C12.9812 16.62 13.7155 16.3151 14.3252 15.7052C14.935 15.0955 15.2402 14.3613 15.2402 13.5027V10.0605C15.2401 9.90912 15.1676 9.80456 15.0233 9.74671Z" fill="#fff"/>
<path d="M17.7403 3.53388L16.5495 2.34314C16.3764 2.17 16.1706 2.08342 15.9324 2.08342C15.6945 2.08342 15.4886 2.17 15.3155 2.34314L8.31244 9.34619L5.46596 6.49951C5.29274 6.32626 5.08704 6.23979 4.849 6.23979C4.61092 6.23979 4.40529 6.32626 4.23204 6.49951L3.04146 7.6901C2.86828 7.86327 2.78162 8.06898 2.78162 8.30717C2.78162 8.54525 2.86828 8.75087 3.04146 8.92413L7.69564 13.5783C7.86885 13.7516 8.07455 13.838 8.3126 13.838C8.55064 13.838 8.7563 13.7516 8.92956 13.5783L17.7402 4.76776C17.9132 4.59462 18 4.38888 18 4.1508C18 3.91272 17.9134 3.70702 17.7403 3.53388Z" fill="#fff"/>
</g>
<defs>
<clipPath id="clip0">
<rect width="18" height="18" fill="white"/>
</clipPath>
</defs>
</svg>
