<svg width="26" height="21" viewBox="0 0 26 21" fill="none" xmlns="http://www.w3.org/2000/svg">
<path d="M22.6122 1.67743L22.6121 1.67735C22.1803 1.24562 21.631 1.00938 21.0137 1.00938C20.3969 1.00938 19.8473 1.2455 19.4156 1.67743C19.4155 1.67751 19.4154 1.67758 19.4153 1.67766L10.0071 11.0858L6.60264 7.68115C6.60262 7.68114 6.6026 7.68112 6.60259 7.6811C6.17058 7.24903 5.62136 7.01303 5.00429 7.01303C4.38706 7.01303 3.83799 7.24911 3.40602 7.68108L1.68629 9.40081L2.39339 10.1079L1.68629 9.40081C1.25467 9.83243 1.01807 10.3815 1.01807 10.9992C1.01807 11.617 1.2548 12.1658 1.68613 12.5974L1.68629 12.5975L8.40885 19.3201C8.4089 19.3201 8.40896 19.3202 8.40901 19.3202C8.8411 19.7524 9.39035 19.9883 10.0073 19.9883C10.6242 19.9883 11.1734 19.7525 11.6055 19.3202C11.6056 19.3202 11.6057 19.3201 11.6057 19.3201L24.332 6.59387L24.3321 6.59371C24.7632 6.16243 25.0002 5.61345 25.0002 4.9956C25.0002 4.37832 24.764 3.82911 24.3321 3.3973L22.6122 1.67743Z" fill="#9794A9" stroke="white" stroke-width="2" stroke-linecap="round"/>
</svg>
