<svg width="18" height="18" viewBox="0 0 18 18" fill="none" xmlns="http://www.w3.org/2000/svg">
<path d="M1.67749 15.8457C2.79412 16.9623 4.26036 17.5206 5.7271 17.5204C7.19356 17.5203 8.66041 16.9621 9.77681 15.8457L16.8038 8.81873C18.3988 7.2237 18.3987 4.62851 16.8037 3.03354C16.0311 2.26087 15.0039 1.83537 13.9112 1.83537C12.8185 1.83537 11.7912 2.26087 11.0186 3.03354L4.57001 9.48198C3.61304 10.439 3.61304 11.9961 4.57001 12.9531C5.52709 13.9101 7.08426 13.9101 8.04123 12.953L12.2875 8.7068C12.6069 8.38729 12.6069 7.86928 12.2875 7.54977C11.968 7.23025 11.4499 7.23025 11.1304 7.54977L6.88419 11.796C6.56522 12.1151 6.04613 12.115 5.72704 11.7961C5.40807 11.477 5.40807 10.9579 5.72704 10.639L12.1756 4.19058C12.6392 3.72701 13.2556 3.47169 13.9112 3.47169C14.5668 3.47169 15.1831 3.72701 15.6467 4.19058C16.6036 5.1476 16.6037 6.70472 15.6468 7.66174L8.61977 14.6886C7.0247 16.2836 4.42945 16.2835 2.83453 14.6886C2.06186 13.916 1.63631 12.8887 1.63631 11.7961C1.63631 10.7034 2.06186 9.67605 2.83453 8.90338L9.86141 1.87639C10.1809 1.55687 10.1809 1.03882 9.86141 0.719354C9.54195 0.399891 9.02389 0.399836 8.70437 0.719354L1.67749 7.74634C0.595782 8.82805 0 10.2663 0 11.7961C0 13.3258 0.595782 14.7641 1.67749 15.8457Z" fill="white"/>
</svg>
