<svg width="32" height="32" viewBox="0 0 32 32" fill="none" xmlns="http://www.w3.org/2000/svg">
<path d="M16 32C7.17725 32 0 24.8228 0 16C0 7.17725 7.17725 0 16 0C24.8228 0 32 7.17725 32 16C32 24.8228 24.8228 32 16 32ZM16 2C8.28003 2 2 8.28003 2 16C2 23.72 8.28003 30 16 30C23.72 30 30 23.72 30 16C30 8.28003 23.72 2 16 2Z" fill="#9794A9"/>
<path d="M11.0505 21.9492C10.7944 21.9492 10.5383 21.8521 10.3437 21.656C9.95313 21.2654 9.95313 20.6321 10.3437 20.2415L20.2436 10.3413C20.6345 9.95068 21.2678 9.95068 21.6584 10.3413C22.0491 10.7319 22.0491 11.3652 21.6584 11.7561L11.7583 21.656C11.561 21.8521 11.3052 21.9492 11.0505 21.9492Z" fill="#9794A9"/>
<path d="M20.9492 21.9491C20.6933 21.9491 20.4372 21.8519 20.2426 21.6559L10.3427 11.7572C9.95184 11.3666 9.95184 10.7333 10.3427 10.3427C10.7333 9.95178 11.3666 9.95178 11.7573 10.3427L21.6572 20.2426C22.048 20.6332 22.048 21.2665 21.6572 21.6571C21.4614 21.8519 21.2053 21.9491 20.9492 21.9491Z" fill="#9794A9"/>
</svg>
