<svg width="16" height="16" viewBox="0 0 16 16" fill="none" xmlns="http://www.w3.org/2000/svg">
<path d="M11.0494 5.5164L9.79692 5.47046L9.52539 12.8856L10.7778 12.9313L11.0494 5.5164Z" fill="white"/>
<path d="M8.6263 5.49347H7.37305V12.9086H8.6263V5.49347Z" fill="white"/>
<path d="M6.47416 12.8854L6.20263 5.47028L4.9502 5.51624L5.22176 12.9314L6.47416 12.8854Z" fill="white"/>
<path d="M0.542969 2.4021V3.65535H1.84888L2.88488 15.4283C2.91328 15.7518 3.18422 16 3.509 16H12.4696C12.7944 16 13.0656 15.7517 13.0938 15.4281L14.1298 3.65535H15.4568V2.4021H0.542969ZM11.8957 14.7468H4.08281L3.10694 3.65535H12.8717L11.8957 14.7468Z" fill="white"/>
<path d="M10.0466 0H5.95258C5.3767 0 4.9082 0.4685 4.9082 1.04437V3.02872H6.16145V1.25325H9.83769V3.02872H11.0909V1.04437C11.0909 0.4685 10.6224 0 10.0466 0Z" fill="white"/>
</svg>
