<svg width="20" height="20" viewBox="0 0 20 20" fill="none" xmlns="http://www.w3.org/2000/svg">
<path d="M14.2188 6.79688V2.14844H15.9486C16.1957 2.50244 16.6058 2.73438 17.0703 2.73438C17.8253 2.73438 18.4375 2.12219 18.4375 1.36719C18.4375 0.612183 17.8253 0 17.0703 0C16.6058 0 16.1957 0.231934 15.9486 0.585938H12.6562V6.79688H10.7422V2.48886C11.0962 2.24182 11.3281 1.83167 11.3281 1.36719C11.3281 0.612183 10.7159 0 9.96094 0C9.20593 0 8.59375 0.612183 8.59375 1.36719C8.59375 1.83167 8.82568 2.24182 9.17969 2.48886V6.79688H7.1875V3.47656H3.55469V2.48886C3.90869 2.24182 4.14062 1.83167 4.14062 1.36719C4.14062 0.612183 3.52844 0 2.77344 0C2.01843 0 1.40625 0.612183 1.40625 1.36719C1.40625 1.83167 1.63818 2.24182 1.99219 2.48886V5.03906H5.625V6.79688H0.78125V8.92715L7.34375 15.2162V17.6939L11.6396 20H12.6562V15.2162L19.2188 8.92715V6.79688H14.2188ZM11.0938 14.5494V17.9337L8.90625 16.7592V14.5494L5.70786 11.4844H12.028L13.6584 9.92188H4.25781C4.20212 9.92188 4.1478 9.92798 4.09546 9.93896L2.44705 8.35938H17.5529L11.0938 14.5494Z" fill="#9794A9"/>
</svg>
