<svg width="18" height="18" viewBox="0 0 18 18" fill="none" xmlns="http://www.w3.org/2000/svg">
<path d="M5.00977 9.5625H4.5V10.6523H5.00977C5.31024 10.6523 5.55469 10.4079 5.55469 10.1074C5.55469 9.80695 5.31024 9.5625 5.00977 9.5625Z" fill="white"/>
<path d="M2.63672 15.3281H15.3633V18H2.63672V15.3281Z" fill="white"/>
<path d="M15.3633 4.21875H11.1445V0H2.63672V6.32812H15.3633V4.21875Z" fill="white"/>
<path d="M12.1992 0.74585V3.16408H14.6174L12.1992 0.74585Z" fill="white"/>
<path d="M8.71875 9.5625V12.2344C9.30034 12.2344 9.77344 11.7613 9.77344 11.1797V10.6172C9.77344 10.0356 9.30034 9.5625 8.71875 9.5625Z" fill="white"/>
<path d="M1.40625 7.38281V14.2734H16.5938V7.38281H1.40625ZM5.00977 11.707H4.5V13.2891H3.44531V8.50781H5.00977C5.89183 8.50781 6.60938 9.22536 6.60938 10.1074C6.60938 10.9895 5.89183 11.707 5.00977 11.707ZM10.8281 11.1797C10.8281 12.3429 9.88193 13.2891 8.71875 13.2891H7.66406V8.50781H8.71875C9.88193 8.50781 10.8281 9.45401 10.8281 10.6172V11.1797ZM14.5898 9.5625H13.0078V10.7754H14.0625V11.8301H13.0078V13.2891H11.9531V8.50781H14.5898V9.5625Z" fill="white"/>
</svg>
