<svg width="32" height="32" viewBox="0 0 32 32" fill="none" xmlns="http://www.w3.org/2000/svg">
<path d="M30.125 20.0625V10H28.875V5H27.625V0H4.375V5H3.125V10H1.875V20.0625H0V28.25C0 30.3188 1.68125 32 3.75 32H28.25C30.3188 32 32 30.3188 32 28.25V20.0625H30.125ZM6.875 2.5H25.125V5H6.875V2.5ZM5.625 7.5H26.375V10H5.625V7.5ZM4.375 12.5H27.625V20.0625H19.1875V21.3125C19.1875 23.1063 17.7313 24.5625 15.9375 24.5625C14.1438 24.5625 12.6875 23.1063 12.6875 21.3125V20.0625H4.375V12.5Z" fill="#9794A9"/>
</svg>
