<svg width="18" height="18" viewBox="0 0 18 18" fill="none" xmlns="http://www.w3.org/2000/svg">
<g clip-path="url(#clip0)">
<path d="M17.4727 9.63885L11.8243 9.63889C10.5991 9.63889 9.60233 10.6356 9.60233 11.8608C9.60237 13.0859 10.5991 14.0826 11.8242 14.0826C12.4678 14.0826 12.9914 14.6062 12.9914 15.2498C12.9914 15.8934 12.4678 16.417 11.8242 16.417H0.527344C0.236109 16.417 0 16.6531 0 16.9443C0 17.2356 0.236109 17.4717 0.527344 17.4717H11.8242C13.0494 17.4717 14.0461 16.4749 14.0461 15.2498C14.0461 14.0247 13.0494 13.0279 11.8242 13.0279C11.1806 13.0279 10.6571 12.5044 10.657 11.8608C10.657 11.2172 11.1806 10.6936 11.8243 10.6936L17.4727 10.6935C17.7639 10.6935 18 10.4574 18 10.1662C18 9.87496 17.7639 9.63885 17.4727 9.63885Z" fill="white"/>
<path d="M2.4641 5.13971L0.121433 7.96426C0.0105155 8.09803 -0.0273828 8.27781 0.0200429 8.44498L1.46187 13.5229L3.47744 8.65687C3.58889 8.38778 3.89738 8.26006 4.16643 8.37147C4.43552 8.48295 4.56331 8.79137 4.45187 9.06049L2.43629 13.9265L7.04636 11.3554C7.19809 11.2708 7.29843 11.1168 7.31456 10.9438L7.65544 7.28996L2.4641 5.13971Z" fill="white"/>
<path d="M9.0018 2.17177L5.1314 0.568543C5.0022 0.515 4.857 0.515 4.7278 0.568508C4.59861 0.622051 4.49592 0.724672 4.44241 0.853906L3.04102 4.23713L7.88581 6.24381L9.28716 2.86076C9.39864 2.59171 9.27085 2.28322 9.0018 2.17177Z" fill="white"/>
</g>
<defs>
<clipPath id="clip0">
<rect width="18" height="18" fill="white"/>
</clipPath>
</defs>
</svg>
