<?xml version="1.0" encoding="utf-8"?>
<!-- Generator: Adobe Illustrator 24.0.0, SVG Export Plug-In . SVG Version: 6.00 Build 0)  -->
<svg version="1.1" id="Слой_1" xmlns="http://www.w3.org/2000/svg" xmlns:xlink="http://www.w3.org/1999/xlink" x="0px" y="0px"
	 viewBox="0 0 18 18" style="enable-background:new 0 0 18 18;" xml:space="preserve">
<style type="text/css">
	.st0{fill:none;stroke:#9794A9;stroke-linecap:round;stroke-linejoin:round;stroke-miterlimit:10;}
</style>
<path class="st0" d="M17.1,7.2L17.1,7.2L17.1,7.2l-3.4,3.3l0,0c-0.4,0.4-0.6,1.1-0.5,1.6l0,0c0,0,0.6,3.4,0.8,4.6l0,0
	c0,0,0,0.1-0.1,0c-1.1-0.6-4.1-2.1-4.1-2.1c-0.6-0.3-1.1-0.3-1.7,0l0,0L4,16.8l0,0c0,0,0,0-0.1,0c0,0,0,0,0-0.1l0,0l0.8-4.6
	c0.2-0.6,0-1.1-0.5-1.6l0,0c0,0-3.4-3.3-3.4-3.4l0,0l4.6-0.7l0,0c0.6-0.1,1.1-0.5,1.3-1l0,0L9,1.2l0,0l0,0l0,0l0,0l2.1,4.2l0,0
	c0.3,0.6,0.8,0.9,1.3,1l0,0L17.1,7.2L17.1,7.2L17.1,7.2z"/>
</svg>
