<svg width="18" height="18" viewBox="0 0 18 18" fill="none" xmlns="http://www.w3.org/2000/svg">
<path d="M8.50366 0.308331C8.59686 0.119527 8.78913 8.3659e-09 8.9997 8.3659e-09C9.21027 -3.65108e-05 9.40258 0.119491 9.49578 0.308295L11.6534 4.67953C11.8563 5.09055 12.2485 5.37551 12.7021 5.44139L17.5263 6.14267C17.7347 6.17298 17.9078 6.31891 17.9729 6.51918C18.0379 6.71941 17.9837 6.93926 17.8329 7.08625L14.3424 10.4891C14.0141 10.8092 13.8644 11.2701 13.9418 11.7219L14.7654 16.5259C14.801 16.7334 14.7157 16.9431 14.5453 17.0668C14.375 17.1906 14.1492 17.2069 13.9628 17.1089L9.64784 14.8408C9.24211 14.6276 8.7574 14.6276 8.35159 14.8409L4.03704 17.1089C3.85065 17.2068 3.62481 17.1904 3.45449 17.0667C3.28412 16.943 3.19885 16.7332 3.23442 16.5257L4.0584 11.7221C4.13593 11.2702 3.98613 10.8092 3.65782 10.4891L0.167068 7.08629C0.0163167 6.9393 -0.0379873 6.71945 0.0270898 6.51922C0.0921669 6.31898 0.265268 6.17305 0.473646 6.1427L5.29768 5.44146C5.75132 5.37551 6.1435 5.09059 6.3464 4.67949L8.50366 0.308331Z" fill="#0075FF"/>
</svg>
