<svg width="32" height="32" viewBox="0 0 32 32" fill="none" xmlns="http://www.w3.org/2000/svg">
<g clip-path="url(#clip0)">
<path d="M5.64703 3.76468H3.76468V32H24.4706V30.1177H5.64703V3.76468Z" fill="#9794A9"/>
<path d="M7.52939 -3.05176e-05V28.2353H28.2353V-3.05176e-05C26.7727 -3.05176e-05 8.20848 -3.05176e-05 7.52939 -3.05176e-05ZM11.2941 3.76468H13.1764V5.64703H11.2941V3.76468ZM11.2941 7.52938H13.1764V9.41173H11.2941V7.52938ZM11.2941 11.2941H13.1764V13.1764H11.2941V11.2941ZM11.2941 15.0588H17.8823V16.9411H11.2941V15.0588ZM24.4706 24.4706C24.2615 24.4706 11.5032 24.4706 11.2941 24.4706C11.2941 23.8122 11.2941 23.2465 11.2941 22.5882H24.4706V24.4706ZM24.4706 20.7059C24.2615 20.7059 11.5032 20.7059 11.2941 20.7059C11.2941 20.0475 11.2941 19.4818 11.2941 18.8235H24.4706V20.7059ZM24.4706 13.1764C23.2969 13.1764 16.5135 13.1764 15.0588 13.1764C15.0588 12.5181 15.0588 11.9524 15.0588 11.2941H24.4706V13.1764ZM24.4706 9.41173C23.2969 9.41173 16.5135 9.41173 15.0588 9.41173C15.0588 8.75341 15.0588 8.1877 15.0588 7.52938H24.4706V9.41173ZM24.4706 5.64703C23.2969 5.64703 16.5135 5.64703 15.0588 5.64703C15.0588 4.98871 15.0588 4.423 15.0588 3.76468H24.4706V5.64703Z" fill="#9794A9"/>
</g>
<defs>
<clipPath id="clip0">
<rect width="32" height="32" fill="white"/>
</clipPath>
</defs>
</svg>
