<svg width="16" height="16" viewBox="0 0 16 16" fill="none" xmlns="http://www.w3.org/2000/svg">
<g clip-path="url(#clip0)">
<path d="M2.8235 1.88234H1.88232V16H12.2353V15.0588H2.8235V1.88234Z" fill="#fff"/>
<path d="M3.76471 -1.52588e-05V14.1176H14.1177V-1.52588e-05C13.3864 -1.52588e-05 4.10425 -1.52588e-05 3.76471 -1.52588e-05ZM5.64706 1.88234H6.58824V2.82351H5.64706V1.88234ZM5.64706 3.76469H6.58824V4.70587H5.64706V3.76469ZM5.64706 5.64704H6.58824V6.58822H5.64706V5.64704ZM5.64706 7.5294H8.94118V8.47057H5.64706V7.5294ZM12.2353 12.2353C12.1308 12.2353 5.7516 12.2353 5.64706 12.2353C5.64706 11.9061 5.64706 11.6233 5.64706 11.2941H12.2353V12.2353ZM12.2353 10.3529C12.1308 10.3529 5.7516 10.3529 5.64706 10.3529C5.64706 10.0238 5.64706 9.74091 5.64706 9.41175H12.2353V10.3529ZM12.2353 6.58822C11.6484 6.58822 8.25679 6.58822 7.52942 6.58822C7.52942 6.25906 7.52942 5.9762 7.52942 5.64704H12.2353V6.58822ZM12.2353 4.70587C11.6484 4.70587 8.25679 4.70587 7.52942 4.70587C7.52942 4.37671 7.52942 4.09385 7.52942 3.76469H12.2353V4.70587ZM12.2353 2.82351C11.6484 2.82351 8.25679 2.82351 7.52942 2.82351C7.52942 2.49435 7.52942 2.2115 7.52942 1.88234H12.2353V2.82351Z" fill="#fff"/>
</g>
<defs>
<clipPath id="clip0">
<rect width="16" height="16" fill="white"/>
</clipPath>
</defs>
</svg>
