<svg width="24" height="24" viewBox="0 0 24 24" fill="none" xmlns="http://www.w3.org/2000/svg">
<path d="M22.408 10.9532H22.3715V7.72243C22.3715 6.2398 21.1654 5.03357 19.6828 5.03357H18.143L15.8798 0.551372C15.8076 0.408392 15.6812 0.300039 15.5286 0.250627C15.3761 0.201137 15.2103 0.214705 15.0678 0.288353L5.88286 5.03365H2.68875C1.20616 5.03365 0 6.23992 0 7.72255V21.0898C0 22.5724 1.20616 23.7787 2.68875 23.7787H19.6827C21.1653 23.7787 22.3715 22.5724 22.3715 21.0898V17.8591H22.408C23.2858 17.8591 24 17.1449 24 16.2671V12.5451C24 11.6674 23.2858 10.9532 22.408 10.9532ZM15.0807 1.63423L16.7971 5.03365H8.50051L15.0807 1.63423ZM22.7985 16.2671C22.7985 16.4824 22.6234 16.6576 22.4081 16.6576H15.5697C15.3544 16.6576 15.1792 16.4824 15.1792 16.2671V12.5451C15.1792 12.3298 15.3544 12.1546 15.5697 12.1546H22.4081C22.6234 12.1546 22.7985 12.3298 22.7985 12.5451V16.2671ZM19.2732 14.4062C19.2732 15.2333 18.6004 15.906 17.7734 15.906C16.9464 15.906 16.2737 15.2332 16.2737 14.4062C16.2737 13.5792 16.9465 12.9064 17.7734 12.9064C18.6004 12.9063 19.2732 13.5791 19.2732 14.4062Z" fill="#0075FF"/>
</svg>
