<svg width="28" height="28" viewBox="0 0 28 28" fill="none" xmlns="http://www.w3.org/2000/svg">
<path d="M14 28C21.732 28 28 21.732 28 14C28 6.26801 21.732 0 14 0C6.26801 0 0 6.26801 0 14C0 21.732 6.26801 28 14 28Z" fill="#F0F0F0"/>
<path d="M27.1292 18.8695C27.692 17.3529 28 15.7125 28 14C28 12.2875 27.692 10.6471 27.1292 9.13046H0.870789C0.308055 10.6471 0 12.2875 0 14C0 15.7125 0.308055 17.3529 0.870789 18.8695L14 20.0869L27.1292 18.8695Z" fill="#0052B4"/>
<path d="M14 28C20.0195 28 25.1511 24.2008 27.1292 18.8695H0.870789C2.84889 24.2008 7.98049 28 14 28Z" fill="#D80027"/>
</svg>
