<?xml version="1.0" encoding="utf-8"?>
<!-- Generator: Adobe Illustrator 24.0.0, SVG Export Plug-In . SVG Version: 6.00 Build 0)  -->
<svg version="1.1" xmlns="http://www.w3.org/2000/svg" xmlns:xlink="http://www.w3.org/1999/xlink" x="0px" y="0px"
	 viewBox="0 0 28 28" style="enable-background:new 0 0 28 28;" xml:space="preserve">
<style type="text/css">
	.st0{clip-path:url(#SVGID_2_);}
	.st1{clip-path:url(#SVGID_4_);fill:#4497B1;}
	.st2{clip-path:url(#SVGID_4_);fill:#BC0030;}
	.st3{clip-path:url(#SVGID_4_);fill:#FFFFFF;}
	.st4{clip-path:url(#SVGID_4_);fill:#50B63F;}
	.st5{clip-path:url(#SVGID_4_);}
	.st6{clip-path:url(#SVGID_6_);}
	.st7{fill:#FFFFFF;}
	.st8{fill:#4497B1;}
</style>
<g id="comp_x5F_Uzbekistan">
	<g>
		<defs>
			<circle id="SVGID_1_" cx="14" cy="14" r="14"/>
		</defs>
		<clipPath id="SVGID_2_">
			<use xlink:href="#SVGID_1_"  style="overflow:visible;"/>
		</clipPath>
		<g id="Uzbekistan_1_" class="st0">
			<g>
				<g>
					<defs>
						<rect id="SVGID_3_" x="-2.3807" y="-0.548941" width="49.222038" height="28.713074"/>
					</defs>
					<clipPath id="SVGID_4_">
						<use xlink:href="#SVGID_3_"  style="overflow:visible;"/>
					</clipPath>
					<rect x="-2.3807" y="-0.548941" class="st1" width="49.222038" height="9.188753"/>
					<rect x="-2.3807" y="8.639812" class="st2" width="49.222038" height="0.574221"/>
					<rect x="-2.3807" y="9.214033" class="st3" width="49.222038" height="9.187066"/>
					<rect x="-2.3807" y="18.401098" class="st2" width="49.222038" height="0.574512"/>
					<rect x="-2.3807" y="18.975611" class="st4" width="49.222038" height="9.188522"/>
					<g class="st5">
						<defs>
							<rect id="SVGID_5_" x="-2.3807" y="-0.548941" width="49.222038" height="28.713074"/>
						</defs>
						<clipPath id="SVGID_6_">
							<use xlink:href="#SVGID_5_"  style="overflow:visible;"/>
						</clipPath>
						<g class="st6">
							<path class="st7" d="M10.812984,4.871095c0,1.446245-1.174012,2.618529-2.620479,2.618529
								c-1.445405,0-2.618973-1.172284-2.618973-2.618529c0-1.446688,1.173569-2.620035,2.618973-2.620035
								C9.638971,2.251059,10.812984,3.424407,10.812984,4.871095"/>
							<path class="st8" d="M11.554707,4.871095c0,1.204259-0.978085,2.181901-2.182787,2.181901
								S7.189132,6.075354,7.189132,4.871095c0-1.204704,0.978085-2.183453,2.182788-2.183453
								S11.554707,3.666391,11.554707,4.871095"/>
							<polygon class="st7" points="14.82953,2.251059 14.667571,2.749911 14.916466,2.830381 							"/>
							<polygon class="st7" points="14.82953,2.251059 14.99109,2.749911 14.742373,2.830381 							"/>
							<polygon class="st7" points="15.327762,2.613462 14.803799,2.613462 14.803799,2.875156 							"/>
							<polygon class="st7" points="15.327762,2.613462 14.904154,2.920772 14.749724,2.708857 							"/>
							<polygon class="st7" points="14.331077,2.613462 14.754728,2.920772 14.908671,2.708857 							"/>
							<polygon class="st7" points="14.331077,2.613462 14.855039,2.613462 14.855039,2.875156 							"/>
							<polygon class="st7" points="15.13706,3.198851 14.975279,2.700176 14.726606,2.780868 							"/>
							<polygon class="st7" points="15.13706,3.198851 14.713408,2.891143 14.867174,2.679007 							"/>
							<polygon class="st7" points="14.521157,3.198851 14.945651,2.891143 14.791708,2.679007 							"/>
							<polygon class="st7" points="14.521157,3.198851 14.683558,2.700176 14.932276,2.780868 							"/>
							<polygon class="st7" points="16.925203,2.251059 16.763422,2.749911 17.012096,2.830381 							"/>
							<polygon class="st7" points="16.925203,2.251059 17.086941,2.749911 16.838268,2.830381 							"/>
							<polygon class="st7" points="17.423435,2.613462 16.899651,2.613462 16.899651,2.875156 							"/>
							<polygon class="st7" points="17.423435,2.613462 16.999561,2.920772 16.845177,2.708857 							"/>
							<polygon class="st7" points="16.426971,2.613462 16.85058,2.920772 17.004965,2.708857 							"/>
							<polygon class="st7" points="16.426971,2.613462 16.950714,2.613462 16.950714,2.875156 							"/>
							<polygon class="st7" points="17.23247,3.198851 17.071131,2.700176 16.822458,2.780868 							"/>
							<polygon class="st7" points="17.23247,3.198851 16.809082,2.891143 16.962582,2.679007 							"/>
							<polygon class="st7" points="16.61661,3.198851 17.040882,2.891143 16.887339,2.679007 							"/>
							<polygon class="st7" points="16.61661,3.198851 16.779234,2.700176 17.027906,2.780868 							"/>
							<polygon class="st7" points="19.020613,2.251059 18.859274,2.749911 19.10799,2.830381 							"/>
							<polygon class="st7" points="19.020613,2.251059 19.182793,2.749911 18.933897,2.830381 							"/>
							<polygon class="st7" points="19.519287,2.613462 18.995546,2.613462 18.995546,2.875156 							"/>
							<polygon class="st7" points="19.519287,2.613462 19.095413,2.920772 18.940807,2.708857 							"/>
							<polygon class="st7" points="18.522823,2.613462 18.945988,2.920772 19.100861,2.708857 							"/>
							<polygon class="st7" points="18.522823,2.613462 19.046343,2.613462 19.046343,2.875156 							"/>
							<polygon class="st7" points="19.32832,3.198851 19.167027,2.700176 18.91791,2.780868 							"/>
							<polygon class="st7" points="19.32832,3.198851 18.904934,2.891143 19.058477,2.679007 							"/>
							<polygon class="st7" points="18.713524,3.198851 19.136734,2.891143 18.982967,2.679007 							"/>
							<polygon class="st7" points="18.713524,3.198851 18.875084,2.700176 19.123758,2.780868 							"/>
							<polygon class="st7" points="12.733678,4.347575 12.571941,4.844921 12.820614,4.925568 							"/>
							<polygon class="st7" points="12.733678,4.347575 12.895415,4.844921 12.646742,4.925568 							"/>
							<polygon class="st7" points="13.23191,4.708471 12.70839,4.708471 12.70839,4.971229 							"/>
							<polygon class="st7" points="13.23191,4.708471 12.808479,5.01618 12.653872,4.805151 							"/>
							<polygon class="st7" points="12.235446,4.708471 12.659054,5.01618 12.812819,4.805151 							"/>
							<polygon class="st7" points="12.235446,4.708471 12.759188,4.708471 12.759188,4.971229 							"/>
							<polygon class="st7" points="13.041164,5.29386 12.879649,4.796471 12.630754,4.877384 							"/>
							<polygon class="st7" points="13.041164,5.29386 12.617779,4.986331 12.771544,4.775523 							"/>
							<polygon class="st7" points="12.425306,5.29386 12.849799,4.986331 12.695857,4.775523 							"/>
							<polygon class="st7" points="12.425306,5.29386 12.587708,4.796471 12.83638,4.877384 							"/>
							<polygon class="st7" points="14.82953,4.347575 14.667571,4.844921 14.916466,4.925568 							"/>
							<polygon class="st7" points="14.82953,4.347575 14.99109,4.844921 14.742373,4.925568 							"/>
							<polygon class="st7" points="15.327762,4.708471 14.803799,4.708471 14.803799,4.971229 							"/>
							<polygon class="st7" points="15.327762,4.708471 14.904154,5.01618 14.749724,4.805151 							"/>
							<polygon class="st7" points="14.331077,4.708471 14.754728,5.01618 14.908671,4.805151 							"/>
							<polygon class="st7" points="14.331077,4.708471 14.855039,4.708471 14.855039,4.971229 							"/>
							<polygon class="st7" points="15.13706,5.29386 14.975279,4.796471 14.726606,4.877384 							"/>
							<polygon class="st7" points="15.13706,5.29386 14.713408,4.986331 14.867174,4.775523 							"/>
							<polygon class="st7" points="14.521157,5.29386 14.945651,4.986331 14.791708,4.775523 							"/>
							<polygon class="st7" points="14.521157,5.29386 14.683558,4.796471 14.932276,4.877384 							"/>
							<polygon class="st7" points="16.925203,4.347575 16.763422,4.844921 17.012096,4.925568 							"/>
							<polygon class="st7" points="16.925203,4.347575 17.086941,4.844921 16.838268,4.925568 							"/>
							<polygon class="st7" points="17.423435,4.708471 16.899651,4.708471 16.899651,4.971229 							"/>
							<polygon class="st7" points="17.423435,4.708471 16.999561,5.01618 16.845177,4.805151 							"/>
							<polygon class="st7" points="16.426971,4.708471 16.85058,5.01618 17.004965,4.805151 							"/>
							<polygon class="st7" points="16.426971,4.708471 16.950714,4.708471 16.950714,4.971229 							"/>
							<polygon class="st7" points="17.23247,5.29386 17.071131,4.796471 16.822458,4.877384 							"/>
							<polygon class="st7" points="17.23247,5.29386 16.809082,4.986331 16.962582,4.775523 							"/>
							<polygon class="st7" points="16.61661,5.29386 17.040882,4.986331 16.887339,4.775523 							"/>
							<polygon class="st7" points="16.61661,5.29386 16.779234,4.796471 17.027906,4.877384 							"/>
							<polygon class="st7" points="19.020613,4.347575 18.859274,4.844921 19.10799,4.925568 							"/>
							<polygon class="st7" points="19.020613,4.347575 19.182793,4.844921 18.933897,4.925568 							"/>
							<polygon class="st7" points="19.519287,4.708471 18.995546,4.708471 18.995546,4.971229 							"/>
							<polygon class="st7" points="19.519287,4.708471 19.095413,5.01618 18.940807,4.805151 							"/>
							<polygon class="st7" points="18.522823,4.708471 18.945988,5.01618 19.100861,4.805151 							"/>
							<polygon class="st7" points="18.522823,4.708471 19.046343,4.708471 19.046343,4.971229 							"/>
							<polygon class="st7" points="19.32832,5.29386 19.167027,4.796471 18.91791,4.877384 							"/>
							<polygon class="st7" points="19.32832,5.29386 18.904934,4.986331 19.058477,4.775523 							"/>
							<polygon class="st7" points="18.713524,5.29386 19.136734,4.986331 18.982967,4.775523 							"/>
							<polygon class="st7" points="18.713524,5.29386 18.875084,4.796471 19.123758,4.877384 							"/>
							<polygon class="st7" points="10.638269,6.442539 10.476488,6.941214 10.724763,7.02164 							"/>
							<polygon class="st7" points="10.638269,6.442539 10.799564,6.941214 10.550891,7.02164 							"/>
							<polygon class="st7" points="11.136059,6.804765 10.612539,6.804765 10.612539,7.066636 							"/>
							<polygon class="st7" points="11.136059,6.804765 10.71285,7.112473 10.558022,6.900337 							"/>
							<polygon class="st7" points="10.139595,6.804765 10.563424,7.112473 10.71719,6.900337 							"/>
							<polygon class="st7" points="10.139595,6.804765 10.663337,6.804765 10.663337,7.066636 							"/>
							<polygon class="st7" points="10.945756,7.390376 10.783798,6.891479 10.53508,6.973632 							"/>
							<polygon class="st7" points="10.945756,7.390376 10.522148,7.082623 10.67587,6.870709 							"/>
							<polygon class="st7" points="10.329676,7.390376 10.753948,7.082623 10.600183,6.870709 							"/>
							<polygon class="st7" points="10.329676,7.390376 10.49252,6.891479 10.740529,6.973632 							"/>
							<polygon class="st7" points="12.733678,6.442539 12.571941,6.941214 12.820614,7.02164 							"/>
							<polygon class="st7" points="12.733678,6.442539 12.895415,6.941214 12.646742,7.02164 							"/>
							<polygon class="st7" points="13.23191,6.804765 12.70839,6.804765 12.70839,7.066636 							"/>
							<polygon class="st7" points="13.23191,6.804765 12.808479,7.112473 12.653872,6.900337 							"/>
							<polygon class="st7" points="12.235446,6.804765 12.659054,7.112473 12.812819,6.900337 							"/>
							<polygon class="st7" points="12.235446,6.804765 12.759188,6.804765 12.759188,7.066636 							"/>
							<polygon class="st7" points="13.041164,7.390376 12.879649,6.891479 12.630754,6.973632 							"/>
							<polygon class="st7" points="13.041164,7.390376 12.617779,7.082623 12.771544,6.870709 							"/>
							<polygon class="st7" points="12.425306,7.390376 12.849799,7.082623 12.695857,6.870709 							"/>
							<polygon class="st7" points="12.425306,7.390376 12.587708,6.891479 12.83638,6.973632 							"/>
							<polygon class="st7" points="14.82953,6.442539 14.667571,6.941214 14.916466,7.02164 							"/>
							<polygon class="st7" points="14.82953,6.442539 14.99109,6.941214 14.742373,7.02164 							"/>
							<polygon class="st7" points="15.327762,6.804765 14.803799,6.804765 14.803799,7.066636 							"/>
							<polygon class="st7" points="15.327762,6.804765 14.904154,7.112473 14.749724,6.900337 							"/>
							<polygon class="st7" points="14.331077,6.804765 14.754728,7.112473 14.908671,6.900337 							"/>
							<polygon class="st7" points="14.331077,6.804765 14.855039,6.804765 14.855039,7.066636 							"/>
							<polygon class="st7" points="15.13706,7.390376 14.975279,6.891479 14.726606,6.973632 							"/>
							<polygon class="st7" points="15.13706,7.390376 14.713408,7.082623 14.867174,6.870709 							"/>
							<polygon class="st7" points="14.521157,7.390376 14.945651,7.082623 14.791708,6.870709 							"/>
							<polygon class="st7" points="14.521157,7.390376 14.683558,6.891479 14.932276,6.973632 							"/>
							<polygon class="st7" points="16.925203,6.442539 16.763422,6.941214 17.012096,7.02164 							"/>
							<polygon class="st7" points="16.925203,6.442539 17.086941,6.941214 16.838268,7.02164 							"/>
							<polygon class="st7" points="17.423435,6.804765 16.899651,6.804765 16.899651,7.066636 							"/>
							<polygon class="st7" points="17.423435,6.804765 16.999561,7.112473 16.845177,6.900337 							"/>
							<polygon class="st7" points="16.426971,6.804765 16.85058,7.112473 17.004965,6.900337 							"/>
							<polygon class="st7" points="16.426971,6.804765 16.950714,6.804765 16.950714,7.066636 							"/>
							<polygon class="st7" points="17.23247,7.390376 17.071131,6.891479 16.822458,6.973632 							"/>
							<polygon class="st7" points="17.23247,7.390376 16.809082,7.082623 16.962582,6.870709 							"/>
							<polygon class="st7" points="16.61661,7.390376 17.040882,7.082623 16.887339,6.870709 							"/>
							<polygon class="st7" points="16.61661,7.390376 16.779234,6.891479 17.027906,6.973632 							"/>
							<polygon class="st7" points="19.020613,6.442539 18.859274,6.941214 19.10799,7.02164 							"/>
							<polygon class="st7" points="19.020613,6.442539 19.182793,6.941214 18.933897,7.02164 							"/>
							<polygon class="st7" points="19.519287,6.804765 18.995546,6.804765 18.995546,7.066636 							"/>
							<polygon class="st7" points="19.519287,6.804765 19.095413,7.112473 18.940807,6.900337 							"/>
							<polygon class="st7" points="18.522823,6.804765 18.945988,7.112473 19.100861,6.900337 							"/>
							<polygon class="st7" points="18.522823,6.804765 19.046343,6.804765 19.046343,7.066636 							"/>
							<polygon class="st7" points="19.32832,7.390376 19.167027,6.891479 18.91791,6.973632 							"/>
							<polygon class="st7" points="19.32832,7.390376 18.904934,7.082623 19.058477,6.870709 							"/>
							<polygon class="st7" points="18.713524,7.390376 19.136734,7.082623 18.982967,6.870709 							"/>
							<polygon class="st7" points="18.713524,7.390376 18.875084,6.891479 19.123758,6.973632 							"/>
						</g>
					</g>
				</g>
			</g>
		</g>
	</g>
</g>
<g id="Layer_1">
</g>
</svg>
