<svg width="28" height="28" viewBox="0 0 28 28" fill="none" xmlns="http://www.w3.org/2000/svg">
<g clip-path="url(#clip0)">
<path d="M27.2229 8.79266V6.73118C27.2229 6.68546 27.2136 6.64029 27.1956 6.59829L25.7878 3.32262C25.6711 3.05103 25.286 3.05103 25.1693 3.32262L23.7615 6.59829C23.7434 6.64029 23.7341 6.68552 23.7341 6.73118V8.79266H27.2229Z" fill="#C1C1C1"/>
<path d="M23.7342 10.4353H27.2229V22.916H23.7342V10.4353Z" fill="#C1C1C1"/>
<path d="M23.7342 24.5587V27.6635C23.7342 27.8493 23.8849 28 24.0708 28H26.8862C27.0721 28 27.2228 27.8493 27.2228 27.6635V24.5587H23.7342Z" fill="#C1C1C1"/>
<path d="M5.41296 15.373H16.9436V20.1521H5.41296V15.373Z" fill="#C1C1C1"/>
<path d="M19.7421 0H2.61441C1.59969 0 0.7771 0.787544 0.7771 1.75907V26.2401C0.7771 27.2116 1.59969 27.9991 2.61441 27.9991H19.742C20.7567 27.9991 21.5793 27.2116 21.5793 26.2401V1.75907C21.5794 0.787544 20.7568 0 19.7421 0V0ZM9.71468 2.58784H12.6418C13.0954 2.58784 13.4631 2.95558 13.4631 3.40917C13.4631 3.86276 13.0954 4.2305 12.6418 4.2305H9.71468C9.26109 4.2305 8.89335 3.86276 8.89335 3.40917C8.89335 2.95558 9.26109 2.58784 9.71468 2.58784ZM4.59162 6.75646H8.22802C8.68162 6.75646 9.04935 7.1242 9.04935 7.57779C9.04935 8.03138 8.68162 8.39912 8.22802 8.39912H4.59162C4.13803 8.39912 3.77029 8.03138 3.77029 7.57779C3.77029 7.1242 4.13797 6.75646 4.59162 6.75646ZM4.59162 10.0436H8.22802C8.68162 10.0436 9.04935 10.4114 9.04935 10.865C9.04935 11.3186 8.68162 11.6863 8.22802 11.6863H4.59162C4.13803 11.6863 3.77029 11.3186 3.77029 10.865C3.77029 10.4114 4.13797 10.0436 4.59162 10.0436ZM11.1782 25.4839C10.6937 25.4839 10.3008 25.0911 10.3008 24.6065C10.3008 24.122 10.6937 23.7292 11.1782 23.7292C11.6628 23.7292 12.0556 24.122 12.0556 24.6065C12.0557 25.0911 11.6628 25.4839 11.1782 25.4839ZM18.5862 20.9734C18.5862 21.427 18.2185 21.7948 17.7649 21.7948H4.59162C4.13803 21.7948 3.77029 21.427 3.77029 20.9734V14.5517C3.77029 14.0981 4.13803 13.7304 4.59162 13.7304H17.7649C18.2185 13.7304 18.5862 14.0981 18.5862 14.5517V20.9734Z" fill="#C1C1C1"/>
</g>
<defs>
<clipPath id="clip0">
<rect width="28" height="28" fill="white"/>
</clipPath>
</defs>
</svg>
