<svg width="28" height="28" viewBox="0 0 28 28" fill="none" xmlns="http://www.w3.org/2000/svg">
<path d="M27.2799 22.9241C27.1848 23.1099 26.9945 23.2238 26.7899 23.2238H17.0982C17.2873 23.6475 17.3968 24.112 17.3968 24.602C17.3968 26.4791 15.8759 28 14.0011 28C12.1273 28 10.6053 26.4791 10.6053 24.602C10.6053 24.112 10.7148 23.6475 10.9051 23.2238H1.21227C1.00432 23.2238 0.816284 23.1088 0.720052 22.9241C0.627139 22.7405 0.643731 22.5192 0.765403 22.3478L5.37787 15.9467V8.62543C5.37676 3.86916 9.24593 0 14.0022 0C18.7596 0 22.6276 3.86916 22.6276 8.62543V15.9467L27.2412 22.3478C27.3562 22.5181 27.3739 22.7405 27.2799 22.9241Z" fill="#C1C1C1"/>
</svg>
